<?xml version="1.0" encoding="UTF-8" standalone="no"?>
<svg
   xmlns:dc="http://purl.org/dc/elements/1.1/"
   xmlns:cc="http://creativecommons.org/ns#"
   xmlns:rdf="http://www.w3.org/1999/02/22-rdf-syntax-ns#"
   xmlns:svg="http://www.w3.org/2000/svg"
   xmlns="http://www.w3.org/2000/svg"
   xmlns:sodipodi="http://sodipodi.sourceforge.net/DTD/sodipodi-0.dtd"
   xmlns:inkscape="http://www.inkscape.org/namespaces/inkscape"
   id="_x33_0"
   enable-background="new 0 0 64 64"
   height="496"
   viewBox="0 0 62 62"
   width="496"
   version="1.1"
   sodipodi:docname="nave.svg"
   inkscape:version="1.0.1 (3bc2e813f5, 2020-09-07)">
  <metadata
     id="metadata111">
    <rdf:RDF>
      <cc:Work
         rdf:about="">
        <dc:format>image/svg+xml</dc:format>
        <dc:type
           rdf:resource="http://purl.org/dc/dcmitype/StillImage" />
      </cc:Work>
    </rdf:RDF>
  </metadata>
  <defs
     id="defs109" />
  <sodipodi:namedview
     pagecolor="#ffffff"
     bordercolor="#666666"
     borderopacity="1"
     objecttolerance="10"
     gridtolerance="10"
     guidetolerance="10"
     inkscape:pageopacity="0"
     inkscape:pageshadow="2"
     inkscape:window-width="1312"
     inkscape:window-height="704"
     id="namedview107"
     showgrid="false"
     inkscape:zoom="3.0825436"
     inkscape:cx="380.08551"
     inkscape:cy="433.65833"
     inkscape:window-x="0"
     inkscape:window-y="27"
     inkscape:window-maximized="1"
     inkscape:current-layer="g102"
     inkscape:document-rotation="0" />
  <g
     id="g104"
     transform="translate(-1,-1)">
    <g
       id="g70">
      <g
         id="g4">
        <path
           d="m 34,52 v 6 h -4 v -6 -7 c 0,-0.55 0.45,-1 1,-1 h 2 c 0.55,0 1,0.45 1,1 z"
           fill="#e6e9ed"
           id="path2" />
      </g>
      <g
         id="g8">
        <path
           d="m 46,54 v 3 c 0,0.55 -0.45,1 -1,1 h -3 -8 v -6 h 12 z"
           fill="#aab2bd"
           id="path6" />
      </g>
      <g
         id="g12">
        <path
           d="m 42,58 v 3 c 0,0.55 -0.45,1 -1,1 h -6 c -0.55,0 -1,-0.45 -1,-1 v -3 z"
           fill="#aab2bd"
           id="path10" />
      </g>
      <g
         id="g16">
        <path
           d="m 30,52 v 6 h -8 -3 c -0.55,0 -1,-0.45 -1,-1 v -3 -2 z"
           fill="#aab2bd"
           id="path14" />
      </g>
      <g
         id="g20">
        <path
           d="m 30,58 v 3 c 0,0.55 -0.45,1 -1,1 h -6 c -0.55,0 -1,-0.45 -1,-1 v -3 z"
           fill="#aab2bd"
           id="path18" />
      </g>
      <g
         id="g24">
        <path
           d="M 46,42 V 52 H 34 v -7 c 0,-0.55 -0.45,-1 -1,-1 h -2 c -0.55,0 -1,0.45 -1,1 v 7 H 18 V 42 c 0,-2.21 1.79,-4 4,-4 h 10 10 c 2.21,0 4,1.79 4,4 z"
           fill="#ccd1d9"
           id="path22" />
      </g>
      <g
         id="g28">
        <path
           d="m 6,48 v 6 H 3 C 2.45,54 2,53.55 2,53 V 46 C 2,45.45 2.22,44.95 2.59,44.59 2.95,44.22 3.45,44 4,44 c 1.1,0 2,0.9 2,2 z"
           fill="#fc6e51"
           id="path26" />
      </g>
      <g
         id="g32">
        <path
           d="m 62,46 v 7 c 0,0.55 -0.45,1 -1,1 h -3 v -6 -2 c 0,-1.1 0.9,-2 2,-2 0.55,0 1.05,0.22 1.41,0.59 C 61.78,44.95 62,45.45 62,46 Z"
           fill="#fc6e51"
           id="path30" />
      </g>
      <g
         id="g36">
        <path
           d="M 60.07,17.48 C 61.3,19.35 62,21.59 62,24 c 0,6.63 -5.37,12 -12,12 -2.4,0 -4.64,-0.71 -6.52,-1.93 2.58,-1.66 5.79,-4.31 9.03,-7.56 3.24,-3.24 5.89,-6.45 7.56,-9.03 z"
           fill="#69d6f4"
           id="path34" />
      </g>
      <g
         id="g40">
        <path
           d="m 56.53,13.93 c 1.42,0.92 2.63,2.13 3.54,3.55 -1.67,2.58 -4.32,5.79 -7.56,9.03 -3.24,3.25 -6.45,5.9 -9.03,7.56 C 42.96,33.73 42.46,33.35 42,32.94 V 16.3 C 42,15.9 41.98,15.5 41.95,15.1 44.08,13.17 46.9,12 50,12 c 2.41,0 4.65,0.7 6.52,1.93 z"
           fill="#69d6f4"
           id="path38" />
      </g>
      <g
         id="g44">
        <path
           d="m 58,48 v 6 H 46 V 52 42 l 1.33,1.11 C 50.39,45.66 54.07,47.35 58,48 Z"
           fill="#ff826e"
           id="path42" />
      </g>
      <g
         id="g48">
        <path
           d="M 42,34.96 V 38 H 32 22 V 16.3 c 0,-2.21 0.46,-4.35 1.31,-6.3 h 17.38 c 0.69,1.6 1.13,3.32 1.26,5.1 0.03,0.4 0.05,0.8 0.05,1.2 v 16.64 z"
           fill="#e6e9ed"
           id="path46" />
      </g>
      <g
         id="g52">
        <path
           d="M 40.69,10 H 23.31 C 24.67,6.87 27.04,4.2 30.13,2.49 30.7,2.17 31.34,2 32,2 c 0.66,0 1.3,0.17 1.87,0.49 2.51,1.39 4.54,3.41 5.95,5.79 0.32,0.55 0.62,1.13 0.87,1.72 z"
           fill="#ff826e"
           id="path50" />
      </g>
      <g
         id="g56">
        <path
           d="m 38,20 v 7 c 0,0.55 -0.45,1 -1,1 H 27 c -0.55,0 -1,-0.45 -1,-1 v -7 c 0,-3.31 2.69,-6 6,-6 1.66,0 3.16,0.67 4.24,1.76 C 37.33,16.84 38,18.34 38,20 Z"
           fill="#69d6f4"
           id="path54" />
      </g>
      <g
         id="g60">
        <path
           d="m 20.48,8 c 0.96,1.43 1.52,3.15 1.52,5 0,0.34 -0.02,0.67 -0.06,1 -0.16,1.47 -0.68,2.83 -1.46,4 C 18.87,20.41 16.12,22 13,22 9.88,22 7.13,20.41 5.52,18 4.56,16.57 4,14.85 4,13 4,8.03 8.03,4 13,4 c 3.12,0 5.87,1.59 7.48,4 z"
           fill="#cf9e76"
           id="path58" />
      </g>
      <g
         id="g64">
        <path
           d="m 18,52 v 2 H 6 v -6 c 3.93,-0.65 7.61,-2.34 10.67,-4.89 L 18,42 Z"
           fill="#ff826e"
           id="path62" />
      </g>
      <g
         id="g68">
        <path
           d="m 12,12 v 2 H 10 C 8.9,14 8,13.1 8,12 8,11.45 8.22,10.95 8.59,10.59 8.95,10.22 9.45,10 10,10 c 0.55,0 1.05,0.22 1.41,0.59 C 11.78,10.95 12,11.45 12,12 Z"
           fill="#fcd770"
           id="path66" />
      </g>
    </g>
    <g
       id="g102">
      <path
         d="m 25,43 h 2 v 6 h -2 z"
         id="path72" />
      <path
         d="m 21,43 h 2 v 6 h -2 z"
         id="path74" />
      <path
         d="m 37,43 h 2 v 6 h -2 z"
         id="path76" />
      <path
         d="m 41,43 h 2 v 6 h -2 z"
         id="path78" />
      <path
         d="m 32,13 c -3.86,0 -7,3.141 -7,7 v 7 c 0,1.103 0.897,2 2,2 h 10 c 1.103,0 2,-0.897 2,-2 v -7 c 0,-3.859 -3.14,-7 -7,-7 z m -5,14 v -7 c 0,-2.757 2.243,-5 5,-5 2.757,0 5,2.243 5,5 l 10e-4,7 z"
         id="path80" />
      <path
         d="m 5,35 h 2 v -4 h 4 V 29 H 7 V 25 H 5 v 4 H 1 v 2 h 4 z"
         id="path82" />
      <path
         d="m 13,33 v 2 h -2 v 2 h 2 v 2 h 2 v -2 h 2 v -2 h -2 v -2 z"
         id="path84" />
      <path
         d="M 61,3 V 1 h -2 v 2 h -2 v 2 h 2 v 2 h 2 V 5 h 2 V 3 Z"
         id="path86" />
      <path
         d="m 45,9 h 2 V 7 h 2 V 5 H 47 V 3 h -2 v 2 h -2 v 2 h 2 z"
         id="path88" />
      <path
         d="m 5,39 h 2 v 2 H 5 Z"
         id="path90" />
      <path
         d="m 15,25 h 2 v 2 h -2 z"
         id="path92" />
      <path
         d="m 17,29 h 2 v 2 h -2 z"
         id="path94" />
      <path
         d="M 43.494,35.245 C 45.458,36.382 47.694,37 50,37 c 7.168,0 13,-5.832 13,-13 0,-2.373 -0.65,-4.593 -1.765,-6.51 1.534,-2.485 2.353,-4.779 1.204,-5.928 -1.037,-1.037 -2.941,-0.645 -5.933,1.201 C 54.589,11.649 52.371,11 50,11 47.38,11 44.854,11.797 42.714,13.25 41.813,8.37 38.786,4.07 34.36,1.612 32.921,0.812 31.082,0.81 29.64,1.612 26.357,3.437 23.844,6.275 22.395,9.609 21.001,5.761 17.322,3 13,3 7.486,3 3,7.486 3,13 c 0,5.514 4.486,10 10,10 3.273,0 6.175,-1.588 8,-4.026 v 18.127 c -2.114,0.431 -3.722,2.207 -3.948,4.387 l -1.019,0.849 C 13.418,44.517 10.315,46.035 7,46.779 V 46 C 7,44.346 5.654,43 4,43 2.346,43 1,44.346 1,46 v 7 c 0,1.103 0.897,2 2,2 h 14 v 2 c 0,1.103 0.897,2 2,2 h 2 v 2 c 0,1.103 0.897,2 2,2 h 6 c 1.103,0 2,-0.897 2,-2 v -2 h 2 v 2 c 0,1.103 0.897,2 2,2 h 6 c 1.103,0 2,-0.897 2,-2 v -2 h 2 c 1.103,0 2,-0.897 2,-2 v -2 h 14 c 1.103,0 2,-0.897 2,-2 v -7 c 0,-1.654 -1.346,-3 -3,-3 -1.654,0 -3,1.346 -3,3 v 0.779 C 53.686,46.035 50.582,44.516 47.967,42.337 L 46.948,41.488 C 46.722,39.308 45.114,37.532 43,37.101 v -1.567 c 0.164,-0.095 0.325,-0.185 0.494,-0.289 z M 61,24 c 0,6.065 -4.935,11 -11,11 -1.61,0 -3.179,-0.359 -4.614,-1.022 2.415,-1.724 5.137,-4.059 7.834,-6.757 0.279,-0.279 3.984,-4.008 6.747,-7.843 C 60.623,20.785 61,22.348 61,24 Z m 0.007,-11.001 c 0.076,0.415 -0.252,1.355 -1.014,2.698 -0.508,-0.611 -1.072,-1.174 -1.682,-1.683 1.572,-0.881 2.405,-1.051 2.696,-1.015 z M 50,13 c 3.635,0 6.854,1.78 8.858,4.505 -1.502,2.211 -3.816,5.066 -7.051,8.302 -2.866,2.866 -5.834,5.37 -8.32,7.056 C 43.32,32.74 43.161,32.604 43,32.471 V 16.296 C 43,16.046 42.986,15.799 42.975,15.551 44.948,13.909 47.421,13 50,13 Z M 41,37 H 23 V 16.296 C 23,14.455 23.35,12.666 23.99,11 H 40.011 C 40.65,12.666 41,14.455 41,16.296 Z M 30.611,3.359 c 0.848,-0.471 1.93,-0.471 2.777,0 2.419,1.344 4.361,3.314 5.68,5.641 H 24.932 C 26.251,6.674 28.193,4.704 30.611,3.359 Z M 7.726,19 H 11 V 17 H 6.082 C 5.398,15.822 5,14.458 5,13 5,8.589 8.589,5 13,5 c 2.021,0 3.864,0.759 5.274,2 H 15 v 2 h 4.918 C 20.602,10.178 21,11.542 21,13 h -8 v -1 c 0,-1.654 -1.346,-3 -3,-3 -1.654,0 -3,1.346 -3,3 0,1.654 1.346,3 3,3 h 10.737 c -0.184,0.71 -0.46,1.381 -0.819,2 H 13 v 2 h 5.274 C 16.864,20.241 15.021,21 13,21 10.979,21 9.136,20.241 7.726,19 Z M 11,12 v 1 h -1 c -0.551,0 -1,-0.448 -1,-1 0,-0.552 0.449,-1 1,-1 0.551,0 1,0.448 1,1 z M 5,53 H 3 v -7 c 0,-0.552 0.449,-1 1,-1 0.551,0 1,0.448 1,1 z m 2,0 v -4.182 c 3.658,-0.748 7.091,-2.359 10,-4.701 V 53 Z m 12,0 h 10 v 4 H 19 Z m 10,8 h -6 v -2 h 6 z m 2,-4 V 45 h 2 v 12 z m 10,4 h -6 v -2 h 6 z m -6,-4 v -4 h 10 v 4 z M 59,46 c 0,-0.552 0.449,-1 1,-1 0.551,0 1,0.448 1,1 v 7 h -2 z m -2,2.818 V 53 H 47 v -8.882 c 2.909,2.342 6.342,3.952 10,4.7 z M 45,42 v 9 H 35 v -6 c 0,-1.103 -0.897,-2 -2,-2 h -2 c -1.103,0 -2,0.897 -2,2 v 6 H 19 v -9 c 0,-1.654 1.346,-3 3,-3 h 20 c 1.654,0 3,1.346 3,3 z"
         id="path96" />
      <path
         d="m 55,9 h 2 v 2 h -2 z"
         id="path98" />
      <path
         d="m 52,1 h 2 v 2 h -2 z"
         id="path100" />
    </g>
  </g>
</svg>
